<svg width="334" height="631" viewBox="0 0 334 631" fill="none" xmlns="http://www.w3.org/2000/svg">
<path d="M144.161 64.2143C139.454 67.1558 139.791 73.1976 136.493 75.9239C134.01 77.9758 130.508 76.9366 128.482 76.0539C128.482 76.0539 127.11 77.8987 126.125 80.358C125.796 81.1831 124.349 80.274 124.603 79.5754C127.821 70.7314 138.771 66.3192 138.771 66.3192C138.771 66.3192 131.045 65.9705 125.881 73.155C125.743 71.5139 125.514 67.0741 129.512 64.3513C134.933 60.656 145.26 63.5284 144.161 64.2143Z" fill="#E07A5F"/>
<path d="M124.53 537.4C126.724 545.514 136.557 549.458 139.157 555.625C141.114 560.266 137.589 563.966 135.1 565.902C135.1 565.902 137.317 568.982 140.722 572.013C141.865 573.03 139.642 574.211 138.661 573.383C126.243 562.89 125.023 545.777 125.023 545.777C125.023 545.777 120.352 555.346 129.083 567.11C126.387 566.098 119.171 563.176 116.949 556.122C113.931 546.556 124.02 535.507 124.53 537.4Z" fill="#E07A5F"/>
<path d="M54.5064 242.953C46.9221 246.446 47.4653 253.621 42.1514 256.858C38.152 259.295 32.509 258.061 29.2462 257.013C29.2462 257.013 27.0349 259.203 25.4488 262.124C24.9177 263.104 22.5864 262.024 22.9955 261.194C28.1806 250.692 45.8217 245.453 45.8217 245.453C45.8217 245.453 33.3744 245.039 25.0553 253.57C24.8324 251.621 24.4633 246.349 30.9055 243.116C39.639 238.728 56.2771 242.139 54.5064 242.953Z" fill="#3D405B"/>
<path d="M161.786 237.942C153.019 246.254 156.915 255.295 151.12 262.145C146.758 267.3 138.549 268.509 133.655 268.774C133.655 268.774 131.615 272.719 130.745 277.3C130.454 278.836 126.812 278.596 127.003 277.316C129.426 261.101 151.087 245.512 151.087 245.512C151.087 245.512 133.994 251.176 126.446 266.394C125.286 263.975 122.464 257.316 129.794 249.91C139.728 239.864 163.834 236.002 161.786 237.942Z" fill="#81B29A"/>
<path d="M52.9487 129.917C61.1976 139.288 70.172 135.1 76.9694 141.292C82.0854 145.952 83.285 154.74 83.5475 159.98C83.5475 159.98 87.4626 162.157 92.009 163.08C93.5338 163.388 93.2954 167.288 92.0245 167.086C75.9316 164.524 60.4616 141.359 60.4616 141.359C60.4616 141.359 66.0809 159.651 81.1842 167.704C78.7838 168.951 72.1741 171.985 64.8243 164.151C54.8541 153.533 51.0241 127.729 52.9487 129.917Z" fill="#F2CC8F"/>
<path d="M50.2459 384.017C47.8316 380.053 47.9795 379.477 47.9795 379.477C51.5913 377.721 53.6596 372.214 52.8369 366.687C51.7409 359.332 43.8476 353.288 43.4815 343.81C43.3968 341.6 32.0114 352.324 33.1931 363.59C34.0608 371.826 40.0162 377.45 41.9138 378.777C43.6371 379.975 45.4011 380.357 45.4011 380.357C47.0289 383.79 48.1713 385.207 48.1713 385.207C48.8732 386.307 51.0598 385.353 50.2459 384.017ZM44.9351 377.497C39.5083 366.297 40.7111 353.517 40.7111 353.517C40.7111 353.517 40.5142 364.026 46.5985 377.247C46.2299 377.574 45.4319 377.688 44.9351 377.497Z" fill="#3D405B"/>
<path d="M36.8245 2.25385C36.625 8.73352 35.7834 9.33017 35.7834 9.33017C28.0685 8.96346 18.9557 14.2175 14.5328 21.4939C8.64944 31.1775 15.2068 43.9711 5.92065 55.7262C3.7537 58.4674 33.4858 53.3249 43.3081 38.835C50.4816 28.2406 46.6437 17.2967 44.9357 14.3743C43.3778 11.7283 40.9021 10.0449 40.9021 10.0449C41.8295 4.75323 41.4458 2.24368 41.4458 2.24368C41.449 0.423637 36.892 0.0692269 36.8245 2.25385ZM38.679 13.8382C35.8416 31.1833 20.5555 45.8621 20.5555 45.8621C20.5555 45.8621 31.8347 33.2439 35.7086 12.9911C36.6499 12.8492 38.0689 13.2626 38.679 13.8382Z" fill="#E07A5F"/>
<path d="M312.304 445.186C312.513 442.165 313.017 441.874 313.017 441.874C317.547 441.926 322.979 439.338 325.683 435.881C329.281 431.281 325.608 425.424 331.235 419.806C332.548 418.495 314.996 421.35 309.014 428.25C304.646 433.294 306.746 438.332 307.708 439.667C308.586 440.875 310.018 441.621 310.018 441.621C309.397 444.099 309.587 445.262 309.587 445.262C309.559 446.11 312.233 446.205 312.304 445.186ZM311.379 439.82C313.294 431.698 322.491 424.625 322.491 424.625C322.491 424.625 315.679 430.676 313.113 440.168C312.557 440.249 311.729 440.078 311.379 439.82Z" fill="#81B29A"/>
<path d="M29.0646 611.738C28.8325 613.312 28.4537 613.477 28.4537 613.477C25.1119 613.575 21.037 615.069 18.9531 616.938C16.181 619.426 18.7412 622.364 14.445 625.436C13.4426 626.152 26.4684 624.185 31.0587 620.438C34.4115 617.699 32.9907 615.142 32.3146 614.476C31.6975 613.873 30.6603 613.526 30.6603 613.526C31.1818 612.222 31.0715 611.624 31.0715 611.624C31.1138 611.183 29.143 611.208 29.0646 611.738ZM29.6098 614.498C27.9884 618.767 21.0213 622.692 21.0213 622.692C21.0213 622.692 26.2023 619.363 28.339 614.365C28.7509 614.308 29.3578 614.374 29.6098 614.498Z" fill="#81B29A"/>
<path d="M183.077 442.293C178.286 445.249 177.547 444.972 177.547 444.972C175.024 439.657 167.903 436.089 161.005 436.61C151.825 437.305 144.879 447.772 132.961 447.188C130.181 447.05 144.677 464.41 158.78 464.049C169.09 463.779 175.672 456.006 177.183 453.475C178.546 451.175 178.877 448.723 178.877 448.723C183.066 446.819 184.755 445.367 184.755 445.367C186.082 444.502 184.692 441.297 183.077 442.293ZM175.311 449.05C161.653 455.427 145.436 452.238 145.436 452.238C145.436 452.238 158.704 453.739 174.854 446.667C175.297 447.227 175.509 448.369 175.311 449.05Z" fill="#F2CC8F"/>
<path d="M256.46 339.714C256.937 336.694 256.395 336.205 256.395 336.205C250.869 334.396 244.885 329.653 242.432 325.187C239.169 319.243 245.057 315.064 239.57 307.299C238.29 305.488 258.959 315.465 264.567 324.62C268.661 331.311 264.885 335.34 263.39 336.241C262.029 337.054 260.106 337.19 260.106 337.19C260.261 339.852 259.748 340.903 259.748 340.903C259.577 341.737 256.3 340.731 256.46 339.714ZM258.886 334.883C258.522 326.211 249.044 315.569 249.044 315.569C249.044 315.569 255.867 324.24 256.691 334.509C257.347 334.816 258.397 334.99 258.886 334.883Z" fill="#3D405B"/>
<path d="M289.909 598.576C288.257 601.517 288.451 602.005 288.451 602.005C291.794 603.872 294.219 608.613 294.13 613.02C294.01 618.886 287.826 622.862 288.583 630.547C288.76 632.339 277.635 622.22 277.385 613.176C277.206 606.565 281.751 602.697 283.252 601.844C284.616 601.075 286.108 600.976 286.108 600.976C287.135 598.373 287.968 597.355 287.968 597.355C288.454 596.543 290.466 597.585 289.909 598.576ZM286.026 603.252C282.574 611.731 285.071 622.297 285.071 622.297C285.071 622.297 283.707 613.704 287.502 603.656C287.145 603.345 286.437 603.156 286.026 603.252Z" fill="#F2CC8F"/>
</svg>
