<svg width="306" height="555" viewBox="0 0 306 555" fill="none" xmlns="http://www.w3.org/2000/svg">
<path d="M173.726 56.5058C178.034 59.0941 177.726 64.4107 180.744 66.8097C183.016 68.6152 186.221 67.7008 188.074 66.9241C188.074 66.9241 189.33 68.5474 190.231 70.7115C190.533 71.4376 191.857 70.6375 191.625 70.0229C188.68 62.2405 178.659 58.3579 178.659 58.3579C178.659 58.3579 185.73 58.0511 190.455 64.3732C190.582 62.9291 190.791 59.0222 187.132 56.6263C182.171 53.3746 172.721 55.9022 173.726 56.5058Z" fill="#E07A5F"/>
<path d="M213.125 499.849C211.117 506.988 202.119 510.459 199.739 515.885C197.949 519.969 201.175 523.225 203.452 524.929C203.452 524.929 201.423 527.639 198.307 530.307C197.261 531.201 199.296 532.241 200.193 531.512C211.557 522.279 212.674 507.22 212.674 507.22C212.674 507.22 216.948 515.64 208.959 525.992C211.426 525.102 218.029 522.53 220.062 516.323C222.824 507.906 213.592 498.182 213.125 499.849Z" fill="#E07A5F"/>
<path d="M255.772 213.788C262.712 216.862 262.215 223.175 267.078 226.024C270.738 228.168 275.902 227.082 278.888 226.16C278.888 226.16 280.912 228.088 282.363 230.657C282.849 231.52 284.983 230.57 284.608 229.84C279.863 220.598 263.719 215.988 263.719 215.988C263.719 215.988 275.11 215.623 282.723 223.131C282.927 221.416 283.265 216.776 277.37 213.931C269.377 210.07 254.151 213.071 255.772 213.788Z" fill="#3D405B"/>
<path d="M253.336 80.0322C245.787 88.2787 237.574 84.5929 231.354 90.0414C226.672 94.142 225.574 101.875 225.334 106.487C225.334 106.487 221.751 108.402 217.591 109.214C216.195 109.485 216.413 112.917 217.576 112.74C232.303 110.485 246.46 90.1006 246.46 90.1006C246.46 90.1006 241.318 106.197 227.497 113.283C229.693 114.38 235.742 117.05 242.468 110.157C251.592 100.814 255.097 78.1065 253.336 80.0322Z" fill="#F2CC8F"/>
<path d="M88.8548 494.221C88.6629 491.563 88.2023 491.307 88.2023 491.307C84.0564 491.352 79.0851 489.075 76.6106 486.033C73.3188 481.984 76.6794 476.831 71.5299 471.887C70.3283 470.734 86.3913 473.246 91.865 479.317C95.8628 483.756 93.941 488.189 93.0603 489.364C92.2567 490.427 90.9468 491.083 90.9468 491.083C91.5149 493.264 91.3412 494.288 91.3412 494.288C91.3667 495.034 88.9197 495.117 88.8548 494.221ZM89.7012 489.498C87.9481 482.352 79.5323 476.128 79.5323 476.128C79.5323 476.128 85.7654 481.453 88.1142 489.805C88.6224 489.876 89.3805 489.726 89.7012 489.498Z" fill="#81B29A"/>
<path d="M290.951 474.65C291.163 476.035 291.51 476.18 291.51 476.18C294.568 476.266 298.297 477.58 300.204 479.225C302.741 481.414 300.398 484 304.33 486.703C305.247 487.333 293.327 485.603 289.126 482.305C286.058 479.895 287.358 477.645 287.977 477.059C288.541 476.528 289.491 476.223 289.491 476.223C289.013 475.075 289.114 474.549 289.114 474.549C289.076 474.161 290.879 474.183 290.951 474.65ZM290.452 477.078C291.936 480.835 298.312 484.289 298.312 484.289C298.312 484.289 293.57 481.359 291.615 476.961C291.238 476.911 290.683 476.969 290.452 477.078Z" fill="#81B29A"/>
<path d="M97.1259 352.64C101.51 355.241 102.186 354.997 102.186 354.997C104.495 350.32 111.012 347.18 117.324 347.639C125.725 348.251 132.081 357.461 142.988 356.947C145.532 356.826 132.267 372.102 119.36 371.784C109.926 371.547 103.902 364.706 102.52 362.479C101.272 360.456 100.969 358.298 100.969 358.298C97.1356 356.623 95.59 355.345 95.59 355.345C94.376 354.584 95.6476 351.763 97.1259 352.64ZM104.233 358.586C116.731 364.197 131.572 361.391 131.572 361.391C131.572 361.391 119.43 362.712 104.651 356.489C104.245 356.981 104.051 357.987 104.233 358.586Z" fill="#F2CC8F"/>
<path d="M192.274 306.555C191.837 303.898 192.333 303.468 192.333 303.468C197.39 301.876 202.866 297.702 205.111 293.772C208.097 288.542 202.709 284.864 207.73 278.032C208.902 276.438 189.987 285.217 184.855 293.273C181.109 299.162 184.564 302.707 185.932 303.499C187.178 304.215 188.937 304.335 188.937 304.335C188.795 306.677 189.265 307.602 189.265 307.602C189.422 308.336 192.42 307.451 192.274 306.555ZM190.054 302.304C190.387 294.673 199.06 285.309 199.06 285.309C199.06 285.309 192.816 292.939 192.062 301.976C191.462 302.245 190.501 302.399 190.054 302.304Z" fill="#3D405B"/>
<path d="M40.3486 526.721C41.86 529.309 41.6824 529.738 41.6824 529.738C38.6237 531.381 36.4047 535.552 36.4861 539.431C36.5955 544.592 42.2545 548.091 41.5622 554.853C41.4002 556.43 51.5812 547.527 51.8095 539.568C51.9734 533.751 47.8142 530.347 46.4407 529.596C45.1926 528.919 43.8273 528.832 43.8273 528.832C42.8872 526.542 42.1245 525.646 42.1245 525.646C41.6796 524.932 39.8392 525.848 40.3486 526.721ZM43.9016 530.835C47.0609 538.296 44.7763 547.594 44.7763 547.594C44.7763 547.594 46.0241 540.032 42.5509 531.191C42.8783 530.917 43.5257 530.751 43.9016 530.835Z" fill="#F2CC8F"/>
</svg>
